<?xml version="1.0" encoding="utf-8"?>
<!-- Generator: Adobe Illustrator 16.0.4, SVG Export Plug-In . SVG Version: 6.00 Build 0)  -->
<!DOCTYPE svg PUBLIC "-//W3C//DTD SVG 1.1//EN" "http://www.w3.org/Graphics/SVG/1.1/DTD/svg11.dtd">
<svg version="1.1" id="Ebene_1" xmlns="http://www.w3.org/2000/svg" xmlns:xlink="http://www.w3.org/1999/xlink" x="0px" y="0px"
	 width="100px" height="100px" viewBox="0 0 100 100" enable-background="new 0 0 100 100" xml:space="preserve">
<g>
	<g>
		<path fill="#FFFFFF" d="M57.433,3.984c21.748,1.94,38.866,21.31,38.866,44.25c0,22.941-17.119,41.84-38.866,43.781V3.984
			 M53.729,0v96C79.284,96,100,74.615,100,48.234C100,21.862,79.286,0,53.729,0L53.729,0z"/>
	</g>
	<path fill="#FFFFFF" d="M44.417,0v62.746c-3.53-8.531-11.728-14.512-21.283-14.512C10.356,48.234,0,58.932,0,72.121
		C0,85.303,10.357,96,23.134,96c9.554,0,17.753-5.98,21.283-14.512V96h3.703V0H44.417z M23.135,92.176
		c-10.714,0-19.433-9-19.433-20.055c0-11.062,8.718-20.062,19.433-20.062s19.434,9,19.434,20.062
		C42.567,83.184,33.849,92.176,23.135,92.176z"/>
</g>
</svg>
